STARTFONT 2.1
FONT -FontForge-Titillium Web-Bold-R-Normal--26-250-75-75-P-142-ISO10646-1
SIZE 25 75 75
FONTBOUNDINGBOX 13 17 1 0
COMMENT "Generated by fontforge, http://fontforge.sourceforge.net"
COMMENT "Copyright (c) 2009-2011 by Accademia di Belle Arti di Urbino and students of MA course of Visual design. Some rights reserved."
STARTPROPERTIES 35
FOUNDRY "FontForge"
FAMILY_NAME "Titillium Web"
WEIGHT_NAME "Bold"
SLANT "R"
SETWIDTH_NAME "Normal"
ADD_STYLE_NAME ""
PIXEL_SIZE 26
POINT_SIZE 250
RESOLUTION_X 75
RESOLUTION_Y 75
SPACING "P"
AVERAGE_WIDTH 142
CHARSET_REGISTRY "ISO10646"
CHARSET_ENCODING "1"
FONTNAME_REGISTRY ""
CHARSET_COLLECTIONS "ISO8859-2 ISO8859-9 ISO8859-4 ISO10646-1"
FONT_NAME "TitilliumWeb-Bold"
FACE_NAME "Titillium Web Bold"
COPYRIGHT "Copyright (c) 2009-2011 by Accademia di Belle Arti di Urbino and students of MA course of Visual design. Some rights reserved."
FONT_VERSION "1.002;PS 57.000;hotconv 1.0.70;makeotf.lib2.5.55311"
FONT_ASCENT 21
FONT_DESCENT 5
UNDERLINE_POSITION -3
UNDERLINE_THICKNESS 1
RAW_ASCENT 800
RAW_DESCENT 200
RELATIVE_WEIGHT 70
RELATIVE_SETWIDTH 50
SUPERSCRIPT_X 0
SUPERSCRIPT_Y 9
SUPERSCRIPT_SIZE 15
SUBSCRIPT_X 0
SUBSCRIPT_Y 1
SUBSCRIPT_SIZE 15
FIGURE_WIDTH 15
ENDPROPERTIES
CHARS 11
STARTCHAR period
ENCODING 46
SWIDTH 256 0
DWIDTH 7 0
BBX 4 4 1 0
BITMAP
F0
F0
F0
F0
ENDCHAR
STARTCHAR zero
ENCODING 48
SWIDTH 560 0
DWIDTH 15 0
BBX 13 17 1 0
BITMAP
1FC0
7FE0
7FF0
F0F0
F078
F078
E078
E078
E078
E078
E078
F078
F078
F0F0
7FF0
7FE0
1FC0
ENDCHAR
STARTCHAR one
ENCODING 49
SWIDTH 560 0
DWIDTH 15 0
BBX 9 17 2 0
BITMAP
0780
1F80
3F80
FF80
F780
6780
0780
0780
0780
0780
0780
0780
0780
0780
0780
0780
0780
ENDCHAR
STARTCHAR two
ENCODING 50
SWIDTH 560 0
DWIDTH 15 0
BBX 11 17 2 0
BITMAP
FF80
FFC0
FFC0
03C0
01E0
01C0
03C0
03C0
0780
0F00
1E00
3C00
7800
F000
FFE0
FFE0
FFE0
ENDCHAR
STARTCHAR three
ENCODING 51
SWIDTH 560 0
DWIDTH 15 0
BBX 12 17 1 0
BITMAP
7FC0
7FE0
7FE0
00F0
00F0
00E0
01E0
3FC0
3FC0
3FE0
00F0
00F0
00F0
00F0
7FE0
7FE0
FFC0
ENDCHAR
STARTCHAR four
ENCODING 52
SWIDTH 560 0
DWIDTH 15 0
BBX 13 17 1 0
BITMAP
0F00
0F00
1E00
1E00
1C00
3C00
3DE0
79E0
79E0
71E0
F1E0
FFF8
FFF8
FFF8
01E0
01E0
01E0
ENDCHAR
STARTCHAR five
ENCODING 53
SWIDTH 560 0
DWIDTH 15 0
BBX 12 17 1 0
BITMAP
7FF0
7FF0
7FF0
7000
7000
7000
7F80
7FE0
7FF0
20F0
00F0
0070
00F0
00F0
7FF0
FFE0
7FC0
ENDCHAR
STARTCHAR six
ENCODING 54
SWIDTH 560 0
DWIDTH 15 0
BBX 13 17 1 0
BITMAP
1FF0
3FF0
7FF0
7800
F000
F000
FFC0
FFE0
FFF0
F0F8
F078
F078
F078
78F8
7FF0
3FE0
1FC0
ENDCHAR
STARTCHAR seven
ENCODING 55
SWIDTH 560 0
DWIDTH 15 0
BBX 11 17 2 0
BITMAP
FFE0
FFE0
FFE0
01E0
01C0
03C0
03C0
0780
0780
0700
0F00
0E00
1E00
1C00
3C00
3800
7800
ENDCHAR
STARTCHAR eight
ENCODING 56
SWIDTH 560 0
DWIDTH 15 0
BBX 13 17 1 0
BITMAP
3FC0
7FF0
FFF0
F0F0
F078
F070
F8F0
7FE0
7FE0
7FF0
F0F8
F078
F078
F0F8
FFF0
7FF0
3FC0
ENDCHAR
STARTCHAR nine
ENCODING 57
SWIDTH 560 0
DWIDTH 15 0
BBX 13 17 1 0
BITMAP
3FC0
7FE0
FFE0
F0F0
E070
E070
F070
F9F8
7FF8
7FF8
0E78
0070
00F0
00F0
7FE0
FFE0
FF80
ENDCHAR
ENDFONT
